<svg width="4025" height="952" viewBox="0 0 4025 952" fill="none" xmlns="http://www.w3.org/2000/svg">
<path d="M460.722 35.0039L71.002 710.018L460.722 916.436L860.217 710.018L460.722 35.0039Z" fill="url(#paint0_linear_2268_4047)"/>
<path d="M755.13 680.09L460.905 160.988L171.797 680.09L463.995 795.265L755.13 680.09Z" fill="url(#paint1_linear_2268_4047)"/>
<path d="M462.394 395.297L148.209 702.512L462.394 860.676L778.723 702.512L462.394 395.297Z" fill="url(#paint2_linear_2268_4047)"/>
<path d="M339.078 514.715V851.954L462.929 916.292L586.78 851.954V514.715L460.785 358.793L339.078 514.715Z" fill="url(#paint3_linear_2268_4047)"/>
<path d="M1016.52 423.22C993.934 423.22 975.069 421.528 959.923 418.143C944.898 414.759 933.768 407.144 926.532 395.299L923.148 419.231H887.991L927.377 140.752H962.533L949.328 234.123C959.897 222.398 973.172 214.844 989.154 211.46C1005.26 208.076 1024.6 206.383 1047.18 206.383C1070.87 206.383 1090.71 207.592 1106.73 210.01C1122.87 212.427 1135.49 217.262 1144.6 224.514C1153.7 231.766 1159.57 242.523 1162.19 256.785C1164.81 271.048 1164.44 290.024 1161.09 313.714C1157.64 338.129 1152.56 357.649 1145.85 372.274C1139.15 386.899 1130.21 397.898 1119.03 405.271C1107.87 412.523 1093.89 417.297 1077.09 419.594C1060.39 422.011 1040.2 423.22 1016.52 423.22ZM1125.94 313.714C1128.38 296.43 1129.42 282.59 1129.06 272.196C1128.82 261.801 1126.08 254.005 1120.83 248.808C1115.61 243.49 1106.77 239.924 1094.33 238.111C1082.02 236.298 1064.93 235.392 1043.08 235.392C1023.18 235.392 1006.94 236.298 994.357 238.111C981.771 239.924 971.807 243.49 964.463 248.808C957.136 254.005 951.517 261.801 947.605 272.196C943.694 282.59 940.516 296.43 938.071 313.714C935.541 331.602 934.736 345.925 935.656 356.682C936.576 367.439 939.947 375.538 945.77 380.977C951.61 386.295 960.566 389.86 972.638 391.673C984.728 393.365 1000.72 394.212 1020.62 394.212C1042.47 394.212 1059.8 393.365 1072.61 391.673C1085.57 389.86 1095.41 386.295 1102.14 380.977C1108.89 375.538 1113.88 367.439 1117.11 356.682C1120.47 345.925 1123.41 331.602 1125.94 313.714ZM1190.85 419.231L1220.39 210.372H1255.54L1251.47 239.199C1256.24 233.035 1260.88 227.898 1265.36 223.788C1269.97 219.679 1275.62 216.415 1282.31 213.998C1289.12 211.581 1298.09 209.889 1309.22 208.922C1320.36 207.834 1334.9 207.29 1352.84 207.29L1348.71 236.479C1324.54 236.479 1305.69 237.326 1292.14 239.018C1278.72 240.71 1268.85 243.611 1262.53 247.72C1256.23 251.709 1251.96 257.269 1249.73 264.4C1247.5 271.531 1245.61 280.596 1244.06 291.595L1226 419.231H1190.85ZM1367.73 419.231L1395.63 221.975H1430.78L1402.88 419.231H1367.73ZM1402.19 175.562L1407.11 140.752H1442.27L1437.35 175.562H1402.19ZM1567.96 498.822C1549.28 498.822 1532.32 498.339 1517.08 497.372C1501.94 496.526 1489.12 494.35 1478.63 490.845C1468.12 487.461 1460.41 482.022 1455.49 474.528C1450.55 467.155 1448.99 457.002 1450.82 444.069H1485.98C1484.78 452.53 1487.22 458.573 1493.3 462.199C1499.5 465.825 1509.21 468.001 1522.41 468.726C1535.61 469.452 1552.16 469.814 1572.06 469.814C1586.83 469.814 1599.53 469.331 1610.17 468.364C1620.79 467.518 1629.7 464.919 1636.91 460.568C1644.24 456.217 1650.15 448.904 1654.66 438.63C1659.27 428.477 1662.88 414.155 1665.49 395.662L1666.19 390.767C1656.1 401.645 1643.31 408.836 1627.8 412.342C1612.41 415.847 1593.67 417.599 1571.57 417.599C1548.74 417.599 1529.45 416.33 1513.7 413.792C1497.96 411.133 1485.54 406.177 1476.43 398.925C1467.45 391.673 1461.61 381.158 1458.92 367.379C1456.23 353.6 1456.46 335.591 1459.61 313.351C1462.96 289.661 1467.96 270.685 1474.62 256.423C1481.27 242.16 1490.11 231.463 1501.13 224.332C1512.28 217.08 1526.08 212.306 1542.52 210.01C1558.98 207.592 1578.62 206.383 1601.44 206.383C1623.54 206.383 1641.8 208.015 1656.23 211.279C1670.8 214.421 1681.58 221.492 1688.57 232.491L1691.7 210.372H1726.86L1700.45 397.112C1696.71 420.077 1691.2 438.328 1683.91 451.865C1676.61 465.523 1667.48 475.676 1656.53 482.324C1645.69 489.092 1632.86 493.504 1618.04 495.559C1603.33 497.735 1586.63 498.822 1567.96 498.822ZM1677.14 313.351C1679.58 296.067 1680.43 282.288 1679.69 272.015C1679.08 261.62 1676.03 253.824 1670.54 248.627C1665.19 243.309 1656.59 239.803 1644.75 238.111C1633.04 236.298 1617.24 235.392 1597.34 235.392C1576.35 235.392 1559.55 236.298 1546.97 238.111C1534.52 239.803 1524.93 243.309 1518.2 248.627C1511.48 253.824 1506.47 261.62 1503.17 272.015C1500.01 282.288 1497.21 296.067 1494.76 313.351C1492.54 329.064 1491.58 341.876 1491.89 351.787C1492.32 361.698 1495.09 369.313 1500.2 374.631C1505.42 379.949 1514.06 383.636 1526.1 385.69C1538.15 387.624 1554.68 388.591 1575.67 388.591C1595.57 388.591 1611.64 387.624 1623.88 385.69C1636.25 383.636 1645.87 379.949 1652.72 374.631C1659.7 369.313 1664.93 361.698 1668.4 351.787C1672 341.876 1674.91 329.064 1677.14 313.351ZM1745.66 419.231L1785.04 140.752H1820.2L1806.43 238.111C1812.67 231.101 1819.97 225.239 1828.33 220.525C1836.81 215.811 1847.68 212.306 1860.94 210.01C1874.34 207.592 1891.61 206.383 1912.72 206.383C1940.31 206.383 1961.66 209.043 1976.78 214.361C1992.02 219.679 2002.03 229.167 2006.81 242.825C2011.59 256.483 2012.22 275.822 2008.68 300.841L1991.93 419.231H1956.59L1973.34 300.841C1975.36 286.579 1975.76 275.097 1974.55 266.394C1973.34 257.692 1970.06 251.104 1964.71 246.632C1959.48 242.16 1951.78 239.199 1941.61 237.749C1931.46 236.177 1918.39 235.392 1902.4 235.392C1877.98 235.392 1858.53 237.386 1844.05 241.375C1829.57 245.363 1818.86 251.648 1811.91 260.23C1804.97 268.691 1800.54 279.75 1798.61 293.408L1780.81 419.231H1745.66ZM2136.22 419.231C2114.74 419.231 2097.82 417.116 2085.48 412.886C2073.16 408.534 2064.84 400.92 2060.52 390.042C2056.33 379.043 2055.64 363.632 2058.45 343.81L2085.4 153.262H2120.55L2112.48 210.372H2242.3L2238.25 239.018H2108.43L2093.6 343.81C2091.69 357.347 2091.48 367.439 2092.98 374.087C2094.61 380.735 2099.06 385.086 2106.34 387.141C2113.74 389.196 2125.07 390.223 2140.32 390.223C2153.87 390.223 2164.55 389.8 2172.36 388.954C2180.3 388.108 2186.35 385.872 2190.52 382.246C2194.72 378.499 2197.9 372.395 2200.07 363.934C2202.25 355.474 2204.42 343.568 2206.59 328.218H2237.72C2234.88 348.282 2231.32 364.357 2227.05 376.444C2222.9 388.531 2217.15 397.656 2209.81 403.82C2202.59 409.985 2193.04 414.094 2181.15 416.149C2169.39 418.204 2154.41 419.231 2136.22 419.231ZM2387.24 423.22C2363.68 423.22 2343.84 422.011 2327.7 419.594C2311.54 417.297 2298.91 412.523 2289.81 405.271C2280.72 397.898 2274.89 386.899 2272.32 372.274C2269.75 357.649 2270.19 338.129 2273.64 313.714C2276.99 290.024 2282 271.048 2288.65 256.785C2295.31 242.523 2304.21 231.766 2315.37 224.514C2326.53 217.262 2340.52 212.427 2357.34 210.01C2374.16 207.592 2394.35 206.383 2417.91 206.383C2446.11 206.383 2469.07 208.015 2486.8 211.279C2504.67 214.421 2517.29 220.948 2524.68 230.859C2532.07 240.77 2534.32 255.879 2531.45 276.184H2497.76C2499.42 264.46 2498.22 255.697 2494.16 249.896C2490.09 244.094 2481.73 240.226 2469.06 238.293C2456.4 236.359 2437.98 235.392 2413.81 235.392C2392.08 235.392 2374.74 236.298 2361.79 238.111C2348.84 239.924 2338.99 243.49 2332.26 248.808C2325.54 254.005 2320.54 261.801 2317.23 272.196C2314.05 282.59 2311.24 296.43 2308.8 313.714C2306.27 331.602 2305.1 345.925 2305.29 356.682C2305.59 367.439 2308.36 375.538 2313.57 380.977C2318.8 386.295 2327.63 389.86 2340.07 391.673C2352.53 393.365 2369.62 394.212 2391.35 394.212C2409.78 394.212 2424.92 393.728 2436.78 392.761C2448.65 391.673 2458.04 389.619 2464.93 386.597C2471.85 383.454 2476.94 378.982 2480.2 373.181C2483.6 367.258 2485.99 359.402 2487.38 349.611H2521.07C2518.78 365.808 2514.5 378.801 2508.23 388.591C2501.96 398.381 2493.47 405.754 2482.76 410.71C2472.05 415.665 2458.77 418.989 2442.9 420.681C2427.16 422.374 2408.61 423.22 2387.24 423.22ZM2675.09 423.22C2651.53 423.22 2631.68 422.011 2615.54 419.594C2599.39 417.297 2586.76 412.523 2577.65 405.271C2568.56 397.898 2562.73 386.899 2560.16 372.274C2557.59 357.649 2558.03 338.129 2561.48 313.714C2564.83 290.024 2569.84 271.048 2576.49 256.785C2583.15 242.523 2592.06 231.766 2603.21 224.514C2614.37 217.262 2628.36 212.427 2645.18 210.01C2662 207.592 2682.19 206.383 2705.75 206.383C2729.44 206.383 2749.28 207.592 2765.3 210.01C2781.44 212.427 2794.06 217.262 2803.16 224.514C2812.27 231.766 2818.13 242.523 2820.76 256.785C2823.38 271.048 2823.01 290.024 2819.66 313.714C2816.21 338.129 2811.13 357.649 2804.42 372.274C2797.72 386.899 2788.77 397.898 2777.6 405.271C2766.44 412.523 2752.46 417.297 2735.66 419.594C2718.96 422.011 2698.77 423.22 2675.09 423.22ZM2784.51 313.714C2786.95 296.43 2787.99 282.59 2787.63 272.196C2787.39 261.801 2784.65 254.005 2779.4 248.808C2774.17 243.49 2765.34 239.924 2752.9 238.111C2740.59 236.298 2723.5 235.392 2701.65 235.392C2679.92 235.392 2662.58 236.298 2649.63 238.111C2636.68 239.924 2626.84 243.49 2620.1 248.808C2613.39 254.005 2608.38 261.801 2605.08 272.196C2601.9 282.59 2599.08 296.43 2596.64 313.714C2594.11 331.602 2592.94 345.925 2593.13 356.682C2593.44 367.439 2596.2 375.538 2601.41 380.977C2606.64 386.295 2615.47 389.86 2627.91 391.673C2640.37 393.365 2657.46 394.212 2679.19 394.212C2701.04 394.212 2718.37 393.365 2731.18 391.673C2744.14 389.86 2753.98 386.295 2760.71 380.977C2767.46 375.538 2772.45 367.439 2775.68 356.682C2779.04 345.925 2781.98 331.602 2784.51 313.714ZM2846.49 419.231L2876.03 210.372H2911.18L2907.26 238.111C2913.5 231.101 2920.8 225.239 2929.16 220.525C2937.64 215.811 2948.51 212.306 2961.77 210.01C2975.17 207.592 2992.44 206.383 3013.55 206.383C3041.14 206.383 3062.49 209.043 3077.61 214.361C3092.85 219.679 3102.86 229.167 3107.64 242.825C3112.43 256.483 3113.05 275.822 3109.51 300.841L3092.76 419.231H3057.43L3074.17 300.841C3076.19 286.579 3076.59 275.097 3075.38 266.394C3074.17 257.692 3070.89 251.104 3065.54 246.632C3060.31 242.16 3052.61 239.199 3042.44 237.749C3032.29 236.177 3019.22 235.392 3003.23 235.392C2978.81 235.392 2959.36 237.386 2944.88 241.375C2930.4 245.363 2919.69 251.648 2912.74 260.23C2905.8 268.691 2901.37 279.75 2899.44 293.408L2881.64 419.231H2846.49ZM3389.38 357.226C3387.17 372.818 3383.05 385.086 3377.03 394.03C3371.13 402.974 3363.06 409.501 3352.84 413.611C3342.61 417.72 3329.92 420.319 3314.75 421.407C3299.68 422.615 3281.84 423.22 3261.21 423.22C3237.65 423.22 3217.8 422.011 3201.66 419.594C3185.63 417.297 3173.06 412.523 3163.95 405.271C3154.99 397.898 3149.22 386.899 3146.65 372.274C3144.2 357.649 3144.7 338.129 3148.15 313.714C3151.5 290.024 3156.39 271.048 3162.8 256.785C3169.33 242.523 3178.12 231.766 3189.15 224.514C3200.19 217.262 3213.99 212.427 3230.57 210.01C3247.27 207.592 3267.4 206.383 3290.96 206.383C3317.94 206.383 3340.01 208.257 3357.18 212.004C3374.35 215.751 3386.53 222.882 3393.71 233.397C3401.01 243.913 3403.22 259.323 3400.35 279.629L3394.02 324.411H3181.98C3179.91 339.882 3179.26 352.271 3180.02 361.577C3180.78 370.884 3183.94 377.894 3189.5 382.608C3195.06 387.322 3203.89 390.465 3216 392.036C3228.24 393.486 3244.68 394.212 3265.31 394.212C3283.86 394.212 3298.87 393.849 3310.32 393.124C3321.9 392.399 3330.79 390.827 3336.99 388.41C3343.33 385.872 3347.89 382.125 3350.67 377.169C3353.44 372.214 3355.42 365.566 3356.6 357.226H3389.38ZM3286.86 235.392C3266.96 235.392 3250.8 236.117 3238.39 237.567C3226.1 239.018 3216.48 241.858 3209.54 246.088C3202.61 250.198 3197.4 256.362 3193.92 264.581C3190.56 272.8 3187.87 283.618 3185.85 297.034H3364.2L3366.66 279.629C3367.89 270.927 3367.87 263.735 3366.6 258.054C3365.46 252.253 3362.2 247.72 3356.8 244.457C3351.42 241.072 3343.09 238.716 3331.8 237.386C3320.64 236.056 3305.65 235.392 3286.86 235.392ZM3426.2 419.231L3431.12 384.421H3466.28L3461.36 419.231H3426.2ZM3618.99 423.22C3593.73 423.22 3573.04 421.89 3556.94 419.231C3540.94 416.693 3529.53 411.012 3522.73 402.189C3516.04 393.365 3514.01 379.647 3516.64 361.033C3519.33 342.057 3525.02 328.157 3533.71 319.334C3542.54 310.39 3555.27 304.588 3571.88 301.929C3588.61 299.27 3610.22 297.941 3636.71 297.941C3658.2 297.941 3676.13 298.424 3690.52 299.391C3704.91 300.358 3717.67 302.05 3728.81 304.467C3730.84 288.392 3731.52 275.761 3730.87 266.575C3730.23 257.269 3727.55 250.379 3722.81 245.907C3718.07 241.435 3710.6 238.595 3700.39 237.386C3690.33 236.056 3676.75 235.392 3659.66 235.392C3640.13 235.392 3624.75 235.815 3613.52 236.661C3602.41 237.507 3594.2 239.018 3588.89 241.193C3583.58 243.369 3579.96 246.511 3578.04 250.621C3576.23 254.73 3574.87 260.049 3573.95 266.575H3538.79C3540.64 253.522 3543.9 243.006 3548.56 235.029C3553.36 227.052 3560.37 221.008 3569.62 216.899C3578.87 212.789 3591.1 210.01 3606.32 208.559C3621.67 207.109 3640.81 206.383 3663.76 206.383C3688.42 206.383 3708.03 207.955 3722.6 211.097C3737.3 214.24 3747.97 219.921 3754.62 228.14C3761.41 236.238 3765.11 247.599 3765.73 262.224C3766.47 276.849 3765.2 295.705 3761.94 318.79L3747.73 419.231H3712.58L3714.6 404.908C3709.84 409.26 3703.6 412.765 3695.9 415.424C3688.2 418.083 3678.16 420.017 3665.79 421.225C3653.51 422.555 3637.92 423.22 3618.99 423.22ZM3622.99 394.937C3643.87 394.937 3660.57 394.695 3673.09 394.212C3685.6 393.728 3695.07 392.399 3701.48 390.223C3708.01 388.047 3712.6 384.542 3715.24 379.707C3717.87 374.873 3719.81 368.104 3721.04 359.402L3725.58 327.311L3632.71 326.224C3616.27 325.982 3602.93 326.224 3592.69 326.949C3582.6 327.553 3574.76 329.004 3569.19 331.3C3563.63 333.476 3559.6 336.981 3557.08 341.815C3554.71 346.529 3552.95 352.935 3551.8 361.033C3550.69 368.89 3550.66 375.114 3551.72 379.707C3552.9 384.3 3555.97 387.685 3560.91 389.86C3565.85 392.036 3573.28 393.426 3583.21 394.03C3593.25 394.635 3606.52 394.937 3622.99 394.937ZM3793.88 419.231L3821.77 221.975H3856.93L3829.03 419.231H3793.88ZM3828.34 175.562L3833.26 140.752H3868.42L3863.49 175.562H3828.34Z" fill="#121212"/>
<path d="M1162.9 698.915L1163.42 695.438C1165.2 683.617 1167.27 673.708 1169.64 665.712C1172.02 657.657 1175.02 651.11 1178.65 646.068C1182.28 641.027 1186.75 637.174 1192.07 634.508C1197.45 631.843 1203.96 630.046 1211.6 629.119C1219.25 628.134 1228.35 627.642 1238.9 627.642H1274.32C1286.39 627.642 1296.46 628.221 1304.55 629.38C1312.71 630.481 1319.05 632.712 1323.59 636.073C1328.19 639.376 1331.15 644.272 1332.46 650.762C1333.78 657.194 1333.64 665.741 1332.04 676.403H1315.17C1316.43 668.001 1316.64 661.482 1315.81 656.846C1314.99 652.153 1312.92 648.763 1309.6 646.677C1306.34 644.591 1301.64 643.316 1295.5 642.852C1289.37 642.331 1281.59 642.07 1272.15 642.07H1236.73C1228.35 642.07 1221.25 642.331 1215.43 642.852C1209.62 643.316 1204.76 644.446 1200.86 646.242C1197.03 647.98 1193.86 650.762 1191.35 654.586C1188.9 658.411 1186.83 663.626 1185.13 670.232C1183.44 676.837 1181.83 685.24 1180.3 695.438L1179.78 698.915C1178.3 708.765 1177.43 716.936 1177.16 723.426C1176.89 729.916 1177.4 735.102 1178.69 738.984C1180.04 742.866 1182.36 745.764 1185.65 747.676C1188.99 749.588 1193.49 750.834 1199.15 751.413C1204.81 751.993 1211.82 752.283 1220.2 752.283H1255.62C1265.05 752.283 1272.91 752.08 1279.18 751.674C1285.45 751.269 1290.52 750.081 1294.39 748.11C1298.32 746.14 1301.39 742.866 1303.6 738.289C1305.82 733.653 1307.55 727.163 1308.8 718.819H1325.68C1324.08 729.481 1321.66 737.999 1318.42 744.373C1315.18 750.747 1310.76 755.557 1305.18 758.801C1299.66 761.988 1292.67 764.103 1284.19 765.146C1275.77 766.19 1265.53 766.711 1253.46 766.711H1218.04C1204.85 766.711 1194.15 765.813 1185.92 764.017C1177.69 762.278 1171.52 759.033 1167.43 754.282C1163.4 749.53 1161.08 742.693 1160.49 733.769C1159.95 724.845 1160.76 713.227 1162.9 698.915ZM1347.39 763.93L1367.41 630.423H1384.29L1364.26 763.93H1347.39ZM1445.54 765.842C1433.41 765.842 1423.49 765.204 1415.77 763.93C1408.1 762.713 1402.65 759.989 1399.42 755.759C1396.24 751.529 1395.32 744.952 1396.66 736.029C1398.03 726.931 1400.81 720.268 1405.02 716.038C1409.3 711.75 1415.43 708.968 1423.41 707.693C1431.46 706.419 1441.83 705.781 1454.55 705.781C1464.86 705.781 1473.47 706.013 1480.37 706.477C1487.28 706.94 1493.39 707.751 1498.73 708.91C1499.77 701.204 1500.15 695.148 1499.87 690.744C1499.6 686.283 1498.34 682.98 1496.08 680.836C1493.83 678.692 1490.25 677.33 1485.36 676.75C1480.53 676.113 1474.02 675.794 1465.81 675.794C1456.44 675.794 1449.05 675.997 1443.66 676.403C1438.33 676.808 1434.38 677.533 1431.82 678.576C1429.26 679.619 1427.51 681.125 1426.57 683.096C1425.69 685.066 1425.02 687.615 1424.55 690.744H1407.67C1408.61 684.486 1410.22 679.445 1412.49 675.621C1414.82 671.796 1418.22 668.899 1422.67 666.929C1427.13 664.959 1433.01 663.626 1440.32 662.93C1447.69 662.235 1456.88 661.887 1467.9 661.887C1479.74 661.887 1489.14 662.641 1496.13 664.147C1503.16 665.654 1508.26 668.377 1511.42 672.318C1514.65 676.2 1516.38 681.647 1516.62 688.658C1516.91 695.67 1516.23 704.709 1514.57 715.777L1507.35 763.93H1490.48L1491.51 757.063C1489.2 759.149 1486.19 760.83 1482.49 762.104C1478.78 763.379 1473.95 764.306 1468.01 764.886C1462.11 765.523 1454.62 765.842 1445.54 765.842ZM1447.57 752.283C1457.59 752.283 1465.61 752.167 1471.62 751.935C1477.63 751.703 1482.18 751.066 1485.27 750.023C1488.41 748.98 1490.63 747.299 1491.91 744.981C1493.2 742.664 1494.15 739.419 1494.78 735.247L1497.09 719.862L1452.52 719.34C1444.62 719.225 1438.22 719.34 1433.3 719.688C1428.45 719.978 1424.69 720.673 1422 721.774C1419.33 722.817 1417.38 724.498 1416.15 726.815C1414.99 729.075 1414.12 732.146 1413.54 736.029C1412.97 739.795 1412.94 742.779 1413.43 744.981C1413.97 747.183 1415.43 748.806 1417.79 749.849C1420.16 750.892 1423.72 751.558 1428.48 751.848C1433.3 752.138 1439.66 752.283 1447.57 752.283ZM1531.26 763.93L1546.28 663.8H1563.15L1561.08 677.62C1563.4 674.664 1565.64 672.202 1567.81 670.232C1570.04 668.261 1572.76 666.697 1575.99 665.538C1579.26 664.379 1583.58 663.568 1588.92 663.104C1594.27 662.583 1601.25 662.322 1609.87 662.322L1607.77 676.316C1596.17 676.316 1587.11 676.722 1580.6 677.533C1574.15 678.344 1569.4 679.735 1566.35 681.705C1563.31 683.617 1561.24 686.283 1560.14 689.701C1559.05 693.12 1558.1 697.466 1557.31 702.739L1548.13 763.93H1531.26ZM1616.16 763.93L1630.34 669.362H1647.22L1633.03 763.93H1616.16ZM1633.68 647.111L1636.18 630.423H1653.06L1650.56 647.111H1633.68ZM1702.38 763.93C1692.07 763.93 1683.96 762.916 1678.05 760.887C1672.15 758.801 1668.19 755.151 1666.16 749.936C1664.2 744.663 1663.93 737.275 1665.35 727.772L1679.05 636.42H1695.93L1691.82 663.8H1754.14L1752.08 677.533H1689.76L1682.23 727.772C1681.25 734.261 1681.11 739.1 1681.81 742.287C1682.56 745.474 1684.68 747.56 1688.16 748.545C1691.71 749.53 1697.14 750.023 1704.47 750.023C1710.97 750.023 1716.1 749.82 1719.85 749.414C1723.66 749.009 1726.58 747.937 1728.59 746.198C1730.62 744.402 1732.17 741.476 1733.25 737.42C1734.33 733.363 1735.42 727.656 1736.52 720.297H1751.46C1750.02 729.916 1748.25 737.622 1746.15 743.417C1744.11 749.211 1741.31 753.586 1737.77 756.542C1734.28 759.497 1729.67 761.467 1723.96 762.452C1718.3 763.437 1711.11 763.93 1702.38 763.93ZM1780.43 797.306L1782.52 783.399C1788.55 783.399 1793.55 783.255 1797.52 782.965C1801.54 782.733 1804.96 782.009 1807.78 780.792C1810.65 779.633 1813.34 777.721 1815.85 775.055C1818.42 772.39 1821.23 768.681 1824.28 763.93H1818.66L1777.43 663.8H1796.76L1831.77 751.5L1885.44 663.8H1905.22L1838.04 769.492C1835.05 774.186 1832.06 778.271 1829.08 781.748C1826.16 785.225 1822.68 788.122 1818.64 790.44C1814.66 792.758 1809.63 794.467 1803.54 795.568C1797.45 796.727 1789.75 797.306 1780.43 797.306ZM1907.43 763.93L1909.93 747.241H1926.81L1924.3 763.93H1907.43ZM2003.58 763.93L2023.61 630.423H2150.87L2148.79 644.33H2038.39L2031.72 688.832H2137.1L2135.01 702.739H2029.63L2020.46 763.93H2003.58ZM2208.69 765.842C2197.39 765.842 2187.86 765.262 2180.13 764.103C2172.38 763.003 2166.34 760.714 2162 757.237C2157.66 753.702 2154.91 748.429 2153.73 741.418C2152.56 734.406 2152.85 725.048 2154.61 713.343C2156.31 701.986 2158.79 692.888 2162.04 686.051C2165.29 679.213 2169.61 674.056 2174.99 670.579C2180.38 667.103 2187.11 664.785 2195.2 663.626C2203.28 662.467 2212.98 661.887 2224.29 661.887C2235.65 661.887 2245.18 662.467 2252.85 663.626C2260.59 664.785 2266.63 667.103 2270.97 670.579C2275.31 674.056 2278.08 679.213 2279.29 686.051C2280.49 692.888 2280.24 701.986 2278.53 713.343C2276.78 725.048 2274.26 734.406 2270.98 741.418C2267.7 748.429 2263.37 753.702 2257.97 757.237C2252.59 760.714 2245.86 763.003 2237.78 764.103C2229.76 765.262 2220.06 765.842 2208.69 765.842ZM2261.66 713.343C2262.9 705.057 2263.46 698.422 2263.32 693.439C2263.25 688.455 2261.97 684.718 2259.47 682.226C2256.98 679.677 2252.75 677.967 2246.79 677.098C2240.89 676.229 2232.69 675.794 2222.2 675.794C2211.77 675.794 2203.44 676.229 2197.22 677.098C2191 677.967 2186.26 679.677 2183 682.226C2179.76 684.718 2177.32 688.455 2175.7 693.439C2174.13 698.422 2172.72 705.057 2171.48 713.343C2170.19 721.919 2169.57 728.786 2169.62 733.943C2169.73 739.1 2171.02 742.982 2173.5 745.59C2175.99 748.139 2180.21 749.849 2186.18 750.718C2192.15 751.529 2200.35 751.935 2210.78 751.935C2221.27 751.935 2229.59 751.529 2235.75 750.718C2241.97 749.849 2246.71 748.139 2249.96 745.59C2253.23 742.982 2255.65 739.1 2257.25 733.943C2258.9 728.786 2260.37 721.919 2261.66 713.343ZM2349.5 765.842C2338.19 765.842 2328.66 765.262 2320.93 764.103C2313.18 763.003 2307.14 760.714 2302.8 757.237C2298.46 753.702 2295.71 748.429 2294.54 741.418C2293.36 734.406 2293.65 725.048 2295.41 713.343C2297.11 701.986 2299.59 692.888 2302.84 686.051C2306.09 679.213 2310.41 674.056 2315.8 670.579C2321.18 667.103 2327.91 664.785 2336 663.626C2344.08 662.467 2353.78 661.887 2365.09 661.887C2378.62 661.887 2389.64 662.67 2398.13 664.234C2406.7 665.741 2412.73 668.87 2416.24 673.621C2419.74 678.373 2420.77 685.616 2419.31 695.351H2403.13C2403.98 689.73 2403.44 685.529 2401.51 682.748C2399.58 679.966 2395.58 678.112 2389.51 677.185C2383.44 676.258 2374.6 675.794 2363 675.794C2352.57 675.794 2344.24 676.229 2338.02 677.098C2331.8 677.967 2327.06 679.677 2323.8 682.226C2320.56 684.718 2318.12 688.455 2316.5 693.439C2314.93 698.422 2313.52 705.057 2312.28 713.343C2311 721.919 2310.38 728.786 2310.42 733.943C2310.53 739.1 2311.82 742.982 2314.3 745.59C2316.79 748.139 2321.02 749.849 2326.98 750.718C2332.95 751.529 2341.15 751.935 2351.58 751.935C2360.43 751.935 2367.7 751.703 2373.39 751.24C2379.1 750.718 2383.61 749.733 2386.93 748.284C2390.27 746.778 2392.73 744.634 2394.31 741.852C2395.97 739.013 2397.15 735.247 2397.85 730.553H2414.03C2412.86 738.318 2410.76 744.547 2407.71 749.24C2404.66 753.934 2400.56 757.469 2395.4 759.844C2390.23 762.22 2383.84 763.814 2376.22 764.625C2368.66 765.436 2359.75 765.842 2349.5 765.842ZM2480.54 765.842C2467.3 765.842 2457.08 764.422 2449.89 761.583C2442.71 758.686 2438.01 753.876 2435.79 747.154C2433.59 740.375 2433.36 731.132 2435.12 719.427L2443.46 663.8H2460.43L2452.08 719.427C2451.09 726.033 2450.8 731.48 2451.21 735.768C2451.69 739.998 2453.13 743.301 2455.53 745.677C2457.93 747.995 2461.56 749.617 2466.4 750.544C2471.3 751.471 2477.7 751.935 2485.61 751.935C2497.33 751.935 2506.68 750.979 2513.64 749.067C2520.61 747.154 2525.77 744.17 2529.14 740.114C2532.57 736 2534.77 730.669 2535.75 724.121L2544.8 663.8H2561.68L2546.66 763.93H2529.78L2531.78 750.631C2528.81 753.992 2525.28 756.802 2521.2 759.062C2517.11 761.322 2511.85 763.003 2505.41 764.103C2498.97 765.262 2490.68 765.842 2480.54 765.842ZM2626.53 765.842C2614.22 765.842 2604.38 765.436 2597 764.625C2589.68 763.814 2584.25 762.307 2580.72 760.105C2577.24 757.903 2575.13 754.774 2574.39 750.718C2573.71 746.662 2573.86 741.389 2574.83 734.899H2591C2590.45 738.549 2590.27 741.505 2590.46 743.765C2590.66 745.967 2591.9 747.676 2594.18 748.893C2596.46 750.052 2600.33 750.863 2605.76 751.326C2611.27 751.732 2619.03 751.935 2629.05 751.935C2639.66 751.935 2647.92 751.732 2653.84 751.326C2659.83 750.863 2664.2 750.052 2666.95 748.893C2669.71 747.676 2671.52 745.938 2672.39 743.678C2673.32 741.418 2674.06 738.434 2674.61 734.725C2675.29 730.205 2675.39 726.815 2674.91 724.556C2674.43 722.296 2672.72 720.789 2669.78 720.036C2666.86 719.225 2662.06 718.79 2655.39 718.732L2615.2 718.297C2604.85 718.182 2597.07 717.312 2591.86 715.69C2586.66 714.067 2583.36 711.228 2581.98 707.172C2580.6 703.058 2580.48 697.234 2581.61 689.701C2582.66 682.69 2584.56 677.272 2587.3 673.448C2590.1 669.623 2593.96 666.9 2598.9 665.277C2603.83 663.655 2610.06 662.699 2617.61 662.409C2625.16 662.061 2634.24 661.887 2644.84 661.887C2657.32 661.887 2667.17 662.264 2674.38 663.017C2681.65 663.771 2686.95 665.19 2690.27 667.276C2693.64 669.362 2695.59 672.405 2696.1 676.403C2696.68 680.343 2696.5 685.5 2695.54 691.874H2679.37C2679.93 688.108 2680.11 685.153 2679.91 683.009C2679.71 680.807 2678.51 679.213 2676.32 678.228C2674.19 677.185 2670.54 676.519 2665.37 676.229C2660.26 675.939 2653.01 675.794 2643.64 675.794C2632.97 675.794 2624.66 675.91 2618.71 676.142C2612.76 676.374 2608.4 676.924 2605.63 677.793C2602.86 678.663 2601.04 680.053 2600.17 681.966C2599.31 683.82 2598.63 686.398 2598.13 689.701C2597.63 693.062 2597.4 695.728 2597.46 697.698C2597.58 699.61 2598.39 701.059 2599.88 702.044C2601.38 703.029 2603.94 703.695 2607.58 704.043C2611.29 704.333 2616.48 704.506 2623.15 704.564L2657.81 704.912C2668.23 705.028 2676.01 705.897 2681.15 707.52C2686.37 709.084 2689.62 712.01 2690.91 716.298C2692.27 720.528 2692.34 726.671 2691.14 734.725C2690.05 741.968 2688.11 747.676 2685.32 751.848C2682.58 756.02 2678.72 759.12 2673.72 761.148C2668.74 763.118 2662.37 764.393 2654.61 764.973C2646.9 765.552 2637.54 765.842 2626.53 765.842ZM2709.34 763.93L2711.85 747.241H2728.72L2726.22 763.93H2709.34ZM2805.5 763.93L2825.52 630.423H2842.39L2822.37 763.93H2805.5ZM2850.85 763.93L2865.86 663.8H2882.74L2880.88 676.229C2883.9 672.868 2887.34 670.058 2891.19 667.798C2895.05 665.538 2899.78 663.858 2905.4 662.757C2911.08 661.598 2918.2 661.018 2926.75 661.018C2937.36 661.018 2945.79 662.438 2952.04 665.277C2958.29 668.117 2962.48 673.013 2964.6 679.966C2968.13 675.563 2972.13 671.97 2976.59 669.189C2981.06 666.349 2986.44 664.292 2992.72 663.017C2999.07 661.685 3006.73 661.018 3015.7 661.018C3026.36 661.018 3034.81 662.467 3041.06 665.364C3047.31 668.204 3051.48 673.071 3053.55 679.966C3055.68 686.862 3055.84 696.307 3054.04 708.302L3045.7 763.93H3028.83L3037.17 708.302C3038.54 699.146 3038.62 692.193 3037.4 687.441C3036.18 682.632 3033.45 679.358 3029.2 677.62C3025.02 675.823 3019.12 674.925 3011.5 674.925C2996.56 674.925 2985.57 677.098 2978.53 681.444C2971.55 685.79 2967.32 692.888 2965.84 702.739L2965.86 702.652C2965.65 704.448 2965.39 706.332 2965.1 708.302L2956.75 763.93H2939.88L2948.22 708.302C2949.6 699.146 2949.67 692.193 2948.45 687.441C2947.24 682.632 2944.51 679.358 2940.26 677.62C2936.07 675.823 2930.17 674.925 2922.56 674.925C2907.61 674.925 2896.62 677.098 2889.59 681.444C2882.61 685.79 2878.38 692.888 2876.9 702.739L2867.72 763.93H2850.85ZM3182.93 713.343C3184.17 705.057 3184.72 698.422 3184.59 693.439C3184.52 688.455 3183.24 684.718 3180.74 682.226C3178.25 679.677 3174.02 677.967 3168.06 677.098C3162.15 676.229 3153.96 675.794 3143.47 675.794C3133.92 675.794 3126.12 676.229 3120.07 677.098C3114.02 677.967 3109.23 679.677 3105.68 682.226C3102.14 684.718 3099.41 688.455 3097.49 693.439C3095.57 698.422 3093.99 705.057 3092.75 713.343C3091.46 721.919 3091.02 728.786 3091.42 733.943C3091.82 739.1 3093.4 742.982 3096.18 745.59C3098.96 748.139 3103.24 749.849 3109.03 750.718C3114.83 751.529 3122.5 751.935 3132.05 751.935C3142.54 751.935 3150.86 751.529 3157.02 750.718C3163.24 749.849 3167.98 748.139 3171.23 745.59C3174.5 742.982 3176.92 739.1 3178.52 733.943C3180.17 728.786 3181.64 721.919 3182.93 713.343ZM3063.28 797.306L3083.31 663.8H3100.18L3098.47 675.186C3103.59 669.565 3110 665.944 3117.68 664.321C3125.42 662.699 3134.72 661.887 3145.56 661.887C3156.92 661.887 3166.45 662.467 3174.12 663.626C3181.86 664.785 3187.9 667.103 3192.24 670.579C3196.58 674.056 3199.35 679.213 3200.55 686.051C3201.76 692.888 3201.5 701.986 3199.8 713.343C3198.05 725.048 3195.53 734.406 3192.25 741.418C3188.97 748.429 3184.64 753.702 3179.24 757.237C3173.86 760.714 3167.13 763.003 3159.05 764.103C3151.03 765.262 3141.33 765.842 3129.96 765.842C3119.12 765.842 3110.08 765.031 3102.82 763.408C3095.62 761.786 3090.31 758.135 3086.88 752.456L3080.16 797.306H3063.28ZM3265.05 765.842C3252.92 765.842 3243 765.204 3235.28 763.93C3227.61 762.713 3222.16 759.989 3218.93 755.759C3215.75 751.529 3214.84 744.952 3216.17 736.029C3217.54 726.931 3220.33 720.268 3224.53 716.038C3228.81 711.75 3234.94 708.968 3242.92 707.693C3250.97 706.419 3261.35 705.781 3274.06 705.781C3284.37 705.781 3292.98 706.013 3299.88 706.477C3306.79 706.94 3312.91 707.751 3318.24 708.91C3319.28 701.204 3319.66 695.148 3319.38 690.744C3319.11 686.283 3317.85 682.98 3315.59 680.836C3313.34 678.692 3309.76 677.33 3304.87 676.75C3300.04 676.113 3293.53 675.794 3285.33 675.794C3275.95 675.794 3268.57 675.997 3263.17 676.403C3257.84 676.808 3253.89 677.533 3251.33 678.576C3248.78 679.619 3247.03 681.125 3246.09 683.096C3245.2 685.066 3244.53 687.615 3244.06 690.744H3227.18C3228.12 684.486 3229.73 679.445 3232 675.621C3234.33 671.796 3237.73 668.899 3242.18 666.929C3246.64 664.959 3252.52 663.626 3259.83 662.93C3267.2 662.235 3276.4 661.887 3287.41 661.887C3299.25 661.887 3308.66 662.641 3315.64 664.147C3322.68 665.654 3327.78 668.377 3330.93 672.318C3334.16 676.2 3335.89 681.647 3336.13 688.658C3336.43 695.67 3335.74 704.709 3334.08 715.777L3326.86 763.93H3309.99L3311.02 757.063C3308.71 759.149 3305.71 760.83 3302 762.104C3298.29 763.379 3293.47 764.306 3287.52 764.886C3281.62 765.523 3274.13 765.842 3265.05 765.842ZM3267.09 752.283C3277.11 752.283 3285.12 752.167 3291.13 751.935C3297.14 751.703 3301.69 751.066 3304.78 750.023C3307.92 748.98 3310.14 747.299 3311.42 744.981C3312.71 742.664 3313.66 739.419 3314.29 735.247L3316.6 719.862L3272.03 719.34C3264.13 719.225 3257.73 719.34 3252.81 719.688C3247.97 719.978 3244.2 720.673 3241.52 721.774C3238.84 722.817 3236.89 724.498 3235.66 726.815C3234.5 729.075 3233.63 732.146 3233.05 736.029C3232.48 739.795 3232.45 742.779 3232.94 744.981C3233.49 747.183 3234.94 748.806 3237.3 749.849C3239.67 750.892 3243.23 751.558 3247.99 751.848C3252.81 752.138 3259.18 752.283 3267.09 752.283ZM3407.87 765.842C3396.57 765.842 3387.04 765.262 3379.31 764.103C3371.56 763.003 3365.52 760.714 3361.18 757.237C3356.84 753.702 3354.09 748.429 3352.91 741.418C3351.74 734.406 3352.03 725.048 3353.79 713.343C3355.49 701.986 3357.97 692.888 3361.22 686.051C3364.47 679.213 3368.79 674.056 3374.17 670.579C3379.56 667.103 3386.29 664.785 3394.38 663.626C3402.46 662.467 3412.16 661.887 3423.47 661.887C3437 661.887 3448.02 662.67 3456.51 664.234C3465.08 665.741 3471.11 668.87 3474.62 673.621C3478.12 678.373 3479.15 685.616 3477.69 695.351H3461.51C3462.36 689.73 3461.81 685.529 3459.89 682.748C3457.96 679.966 3453.96 678.112 3447.89 677.185C3441.82 676.258 3432.98 675.794 3421.38 675.794C3410.95 675.794 3402.62 676.229 3396.4 677.098C3390.18 677.967 3385.44 679.677 3382.18 682.226C3378.94 684.718 3376.5 688.455 3374.88 693.439C3373.31 698.422 3371.9 705.057 3370.66 713.343C3369.37 721.919 3368.75 728.786 3368.8 733.943C3368.91 739.1 3370.2 742.982 3372.68 745.59C3375.17 748.139 3379.39 749.849 3385.36 750.718C3391.33 751.529 3399.53 751.935 3409.96 751.935C3418.81 751.935 3426.08 751.703 3431.77 751.24C3437.48 750.718 3441.99 749.733 3445.31 748.284C3448.64 746.778 3451.1 744.634 3452.69 741.852C3454.35 739.013 3455.53 735.247 3456.23 730.553H3472.41C3471.24 738.318 3469.13 744.547 3466.09 749.24C3463.04 753.934 3458.93 757.469 3453.77 759.844C3448.61 762.22 3442.22 763.814 3434.6 764.625C3427.04 765.436 3418.13 765.842 3407.87 765.842ZM3534.02 763.93C3523.71 763.93 3515.6 762.916 3509.69 760.887C3503.79 758.801 3499.83 755.151 3497.8 749.936C3495.84 744.663 3495.57 737.275 3496.99 727.772L3510.69 636.42H3527.57L3523.46 663.8H3585.78L3583.72 677.533H3521.4L3513.87 727.772C3512.89 734.261 3512.75 739.1 3513.45 742.287C3514.2 745.474 3516.32 747.56 3519.8 748.545C3523.35 749.53 3528.78 750.023 3536.11 750.023C3542.61 750.023 3547.74 749.82 3551.49 749.414C3555.3 749.009 3558.22 747.937 3560.23 746.198C3562.26 744.402 3563.81 741.476 3564.89 737.42C3565.97 733.363 3567.06 727.656 3568.16 720.297H3583.1C3581.66 729.916 3579.89 737.622 3577.79 743.417C3575.75 749.211 3572.95 753.586 3569.41 756.542C3565.92 759.497 3561.31 761.467 3555.6 762.452C3549.94 763.437 3542.75 763.93 3534.02 763.93Z" fill="url(#paint4_linear_2268_4047)"/>
<defs>
<linearGradient id="paint0_linear_2268_4047" x1="458.639" y1="173.331" x2="465.609" y2="785.079" gradientUnits="userSpaceOnUse">
<stop stop-color="#016AB3"/>
<stop offset="0.5" stop-color="#02467E"/>
<stop offset="1" stop-color="#0A2540"/>
</linearGradient>
<linearGradient id="paint1_linear_2268_4047" x1="463.463" y1="308.44" x2="478.779" y2="566.941" gradientUnits="userSpaceOnUse">
<stop stop-color="#0B87FF"/>
<stop offset="1" stop-color="#0A2642"/>
</linearGradient>
<linearGradient id="paint2_linear_2268_4047" x1="469.042" y1="156.727" x2="452.001" y2="731.268" gradientUnits="userSpaceOnUse">
<stop stop-color="#2F81F7"/>
<stop offset="1" stop-color="#0A2642"/>
<stop offset="1" stop-color="#0A2642"/>
</linearGradient>
<linearGradient id="paint3_linear_2268_4047" x1="462.955" y1="246.806" x2="462.955" y2="821.347" gradientUnits="userSpaceOnUse">
<stop offset="0.300847" stop-color="white"/>
<stop offset="0.523305" stop-color="#07BFA4"/>
<stop offset="1" stop-color="#0B2642" stop-opacity="0.15"/>
</linearGradient>
<linearGradient id="paint4_linear_2268_4047" x1="846" y1="684.815" x2="3842.24" y2="1134.21" gradientUnits="userSpaceOnUse">
<stop stop-color="#0A2540"/>
<stop offset="0.5" stop-color="#0B86FE"/>
<stop offset="1" stop-color="#0BC0A5"/>
</linearGradient>
</defs>
</svg>
